<mxfile host="Electron" agent="Mozilla/5.0 (Windows NT 10.0; Win64; x64) AppleWebKit/537.36 (KHTML, like Gecko) draw.io/24.7.17 Chrome/128.0.6613.36 Electron/32.0.1 Safari/537.36" version="24.7.17">
  <diagram id="C5RBs43oDa-KdzZeNtuy" name="Page-1">
    <mxGraphModel dx="757" dy="681" grid="1" gridSize="10" guides="1" tooltips="1" connect="1" arrows="1" fold="1" page="1" pageScale="1" pageWidth="827" pageHeight="1169" math="0" shadow="0">
      <root>
        <mxCell id="WIyWlLk6GJQsqaUBKTNV-0" />
        <mxCell id="WIyWlLk6GJQsqaUBKTNV-1" parent="WIyWlLk6GJQsqaUBKTNV-0" />
        <mxCell id="kOU8PxFYshsEvwVghsib-7" style="edgeStyle=orthogonalEdgeStyle;rounded=0;orthogonalLoop=1;jettySize=auto;html=1;exitX=1;exitY=0.5;exitDx=0;exitDy=0;entryX=0;entryY=0.5;entryDx=0;entryDy=0;" edge="1" parent="WIyWlLk6GJQsqaUBKTNV-1" source="WIyWlLk6GJQsqaUBKTNV-3" target="kOU8PxFYshsEvwVghsib-6">
          <mxGeometry relative="1" as="geometry" />
        </mxCell>
        <mxCell id="WIyWlLk6GJQsqaUBKTNV-3" value="User logs in" style="rounded=1;whiteSpace=wrap;html=1;fontSize=12;glass=0;strokeWidth=1;shadow=0;fillColor=#f0a30a;fontColor=#000000;strokeColor=#BD7000;" parent="WIyWlLk6GJQsqaUBKTNV-1" vertex="1">
          <mxGeometry x="10" y="30" width="120" height="40" as="geometry" />
        </mxCell>
        <mxCell id="kOU8PxFYshsEvwVghsib-5" style="edgeStyle=orthogonalEdgeStyle;rounded=0;orthogonalLoop=1;jettySize=auto;html=1;exitX=1;exitY=0.5;exitDx=0;exitDy=0;entryX=0;entryY=0.5;entryDx=0;entryDy=0;" edge="1" parent="WIyWlLk6GJQsqaUBKTNV-1" source="WIyWlLk6GJQsqaUBKTNV-7" target="kOU8PxFYshsEvwVghsib-4">
          <mxGeometry relative="1" as="geometry" />
        </mxCell>
        <mxCell id="WIyWlLk6GJQsqaUBKTNV-7" value="User transfers money&amp;nbsp;" style="rounded=1;whiteSpace=wrap;html=1;fontSize=12;glass=0;strokeWidth=1;shadow=0;fillColor=#f0a30a;fontColor=#000000;strokeColor=#BD7000;" parent="WIyWlLk6GJQsqaUBKTNV-1" vertex="1">
          <mxGeometry x="10" y="270" width="120" height="40" as="geometry" />
        </mxCell>
        <mxCell id="kOU8PxFYshsEvwVghsib-34" value="YES" style="edgeStyle=orthogonalEdgeStyle;rounded=0;orthogonalLoop=1;jettySize=auto;html=1;exitX=1;exitY=0.5;exitDx=0;exitDy=0;entryX=0;entryY=0.5;entryDx=0;entryDy=0;" edge="1" parent="WIyWlLk6GJQsqaUBKTNV-1" source="WIyWlLk6GJQsqaUBKTNV-10" target="kOU8PxFYshsEvwVghsib-23">
          <mxGeometry relative="1" as="geometry" />
        </mxCell>
        <mxCell id="WIyWlLk6GJQsqaUBKTNV-10" value="Correct Credentials" style="rhombus;whiteSpace=wrap;html=1;shadow=0;fontFamily=Helvetica;fontSize=12;align=center;strokeWidth=1;spacing=6;spacingTop=-4;fillColor=#647687;fontColor=#ffffff;strokeColor=#314354;" parent="WIyWlLk6GJQsqaUBKTNV-1" vertex="1">
          <mxGeometry x="170" y="420" width="110" height="60" as="geometry" />
        </mxCell>
        <mxCell id="kOU8PxFYshsEvwVghsib-1" style="edgeStyle=orthogonalEdgeStyle;rounded=0;orthogonalLoop=1;jettySize=auto;html=1;exitX=1;exitY=0.5;exitDx=0;exitDy=0;entryX=0;entryY=0.5;entryDx=0;entryDy=0;" edge="1" parent="WIyWlLk6GJQsqaUBKTNV-1" source="WIyWlLk6GJQsqaUBKTNV-11" target="kOU8PxFYshsEvwVghsib-0">
          <mxGeometry relative="1" as="geometry" />
        </mxCell>
        <mxCell id="WIyWlLk6GJQsqaUBKTNV-11" value="User requests loan" style="rounded=1;whiteSpace=wrap;html=1;fontSize=12;glass=0;strokeWidth=1;shadow=0;fillColor=#f0a30a;fontColor=#000000;strokeColor=#BD7000;" parent="WIyWlLk6GJQsqaUBKTNV-1" vertex="1">
          <mxGeometry x="10" y="350" width="120" height="40" as="geometry" />
        </mxCell>
        <mxCell id="kOU8PxFYshsEvwVghsib-2" style="edgeStyle=orthogonalEdgeStyle;rounded=0;orthogonalLoop=1;jettySize=auto;html=1;exitX=1;exitY=0.5;exitDx=0;exitDy=0;entryX=0;entryY=0.5;entryDx=0;entryDy=0;" edge="1" parent="WIyWlLk6GJQsqaUBKTNV-1" source="WIyWlLk6GJQsqaUBKTNV-12" target="WIyWlLk6GJQsqaUBKTNV-10">
          <mxGeometry relative="1" as="geometry" />
        </mxCell>
        <mxCell id="WIyWlLk6GJQsqaUBKTNV-12" value="User closes account" style="rounded=1;whiteSpace=wrap;html=1;fontSize=12;glass=0;strokeWidth=1;shadow=0;fillColor=#f0a30a;fontColor=#000000;strokeColor=#BD7000;" parent="WIyWlLk6GJQsqaUBKTNV-1" vertex="1">
          <mxGeometry x="10" y="430" width="120" height="40" as="geometry" />
        </mxCell>
        <mxCell id="kOU8PxFYshsEvwVghsib-32" value="YES" style="edgeStyle=orthogonalEdgeStyle;rounded=0;orthogonalLoop=1;jettySize=auto;html=1;exitX=1;exitY=0.5;exitDx=0;exitDy=0;entryX=0;entryY=0.5;entryDx=0;entryDy=0;" edge="1" parent="WIyWlLk6GJQsqaUBKTNV-1" source="kOU8PxFYshsEvwVghsib-0" target="kOU8PxFYshsEvwVghsib-22">
          <mxGeometry relative="1" as="geometry" />
        </mxCell>
        <mxCell id="kOU8PxFYshsEvwVghsib-0" value="Any deposit &amp;gt; 10% of request?" style="rhombus;whiteSpace=wrap;html=1;shadow=0;fontFamily=Helvetica;fontSize=12;align=center;strokeWidth=1;spacing=6;spacingTop=-4;fillColor=#647687;fontColor=#ffffff;strokeColor=#314354;" vertex="1" parent="WIyWlLk6GJQsqaUBKTNV-1">
          <mxGeometry x="170" y="340" width="110" height="60" as="geometry" />
        </mxCell>
        <mxCell id="kOU8PxFYshsEvwVghsib-31" style="edgeStyle=orthogonalEdgeStyle;rounded=0;orthogonalLoop=1;jettySize=auto;html=1;exitX=1;exitY=0.5;exitDx=0;exitDy=0;entryX=0;entryY=0.5;entryDx=0;entryDy=0;" edge="1" parent="WIyWlLk6GJQsqaUBKTNV-1" source="kOU8PxFYshsEvwVghsib-4" target="kOU8PxFYshsEvwVghsib-21">
          <mxGeometry relative="1" as="geometry" />
        </mxCell>
        <mxCell id="kOU8PxFYshsEvwVghsib-4" value="Add negative movement to current user" style="rounded=0;whiteSpace=wrap;html=1;fillColor=#6d8764;fontColor=#ffffff;strokeColor=#3A5431;" vertex="1" parent="WIyWlLk6GJQsqaUBKTNV-1">
          <mxGeometry x="170" y="270" width="110" height="40" as="geometry" />
        </mxCell>
        <mxCell id="kOU8PxFYshsEvwVghsib-12" style="edgeStyle=orthogonalEdgeStyle;rounded=0;orthogonalLoop=1;jettySize=auto;html=1;exitX=1;exitY=0.5;exitDx=0;exitDy=0;" edge="1" parent="WIyWlLk6GJQsqaUBKTNV-1" source="kOU8PxFYshsEvwVghsib-6">
          <mxGeometry relative="1" as="geometry">
            <mxPoint x="400" y="50" as="targetPoint" />
          </mxGeometry>
        </mxCell>
        <mxCell id="kOU8PxFYshsEvwVghsib-13" value="YES" style="edgeStyle=orthogonalEdgeStyle;rounded=0;orthogonalLoop=1;jettySize=auto;html=1;exitX=1;exitY=0.5;exitDx=0;exitDy=0;entryX=0.5;entryY=0;entryDx=0;entryDy=0;" edge="1" parent="WIyWlLk6GJQsqaUBKTNV-1" source="kOU8PxFYshsEvwVghsib-6" target="kOU8PxFYshsEvwVghsib-11">
          <mxGeometry relative="1" as="geometry" />
        </mxCell>
        <mxCell id="kOU8PxFYshsEvwVghsib-6" value="Correct Credentials" style="rhombus;whiteSpace=wrap;html=1;shadow=0;fontFamily=Helvetica;fontSize=12;align=center;strokeWidth=1;spacing=6;spacingTop=-4;fillColor=#647687;fontColor=#ffffff;strokeColor=#314354;" vertex="1" parent="WIyWlLk6GJQsqaUBKTNV-1">
          <mxGeometry x="170" y="20" width="110" height="60" as="geometry" />
        </mxCell>
        <mxCell id="kOU8PxFYshsEvwVghsib-10" value="Update UI" style="swimlane;whiteSpace=wrap;html=1;" vertex="1" parent="WIyWlLk6GJQsqaUBKTNV-1">
          <mxGeometry x="400" width="240" height="260" as="geometry">
            <mxRectangle x="400" width="90" height="30" as="alternateBounds" />
          </mxGeometry>
        </mxCell>
        <mxCell id="kOU8PxFYshsEvwVghsib-30" style="edgeStyle=orthogonalEdgeStyle;rounded=0;orthogonalLoop=1;jettySize=auto;html=1;exitX=1;exitY=0.5;exitDx=0;exitDy=0;entryX=0;entryY=0.5;entryDx=0;entryDy=0;" edge="1" parent="kOU8PxFYshsEvwVghsib-10" source="kOU8PxFYshsEvwVghsib-14" target="kOU8PxFYshsEvwVghsib-18">
          <mxGeometry relative="1" as="geometry" />
        </mxCell>
        <mxCell id="kOU8PxFYshsEvwVghsib-14" value="Calculate balance" style="rounded=0;whiteSpace=wrap;html=1;fillColor=#6d8764;fontColor=#ffffff;strokeColor=#3A5431;" vertex="1" parent="kOU8PxFYshsEvwVghsib-10">
          <mxGeometry x="10" y="30" width="90" height="40" as="geometry" />
        </mxCell>
        <mxCell id="kOU8PxFYshsEvwVghsib-29" style="edgeStyle=orthogonalEdgeStyle;rounded=0;orthogonalLoop=1;jettySize=auto;html=1;exitX=1;exitY=0.5;exitDx=0;exitDy=0;entryX=0;entryY=0.5;entryDx=0;entryDy=0;" edge="1" parent="kOU8PxFYshsEvwVghsib-10" source="kOU8PxFYshsEvwVghsib-15" target="kOU8PxFYshsEvwVghsib-19">
          <mxGeometry relative="1" as="geometry" />
        </mxCell>
        <mxCell id="kOU8PxFYshsEvwVghsib-15" value="Calculate summary" style="rounded=0;whiteSpace=wrap;html=1;fillColor=#6d8764;fontColor=#ffffff;strokeColor=#3A5431;" vertex="1" parent="kOU8PxFYshsEvwVghsib-10">
          <mxGeometry x="10" y="90" width="100" height="40" as="geometry" />
        </mxCell>
        <mxCell id="kOU8PxFYshsEvwVghsib-16" value="Display movements" style="rounded=0;whiteSpace=wrap;html=1;fillColor=#6d8764;fontColor=#ffffff;strokeColor=#3A5431;" vertex="1" parent="kOU8PxFYshsEvwVghsib-10">
          <mxGeometry x="10" y="150" width="100" height="40" as="geometry" />
        </mxCell>
        <mxCell id="kOU8PxFYshsEvwVghsib-17" value="Start/restart logout timer" style="rounded=0;whiteSpace=wrap;html=1;fillColor=#6d8764;fontColor=#ffffff;strokeColor=#3A5431;" vertex="1" parent="kOU8PxFYshsEvwVghsib-10">
          <mxGeometry x="10" y="210" width="100" height="40" as="geometry" />
        </mxCell>
        <mxCell id="kOU8PxFYshsEvwVghsib-18" value="Display balance" style="rounded=0;whiteSpace=wrap;html=1;fillColor=#6d8764;fontColor=#ffffff;strokeColor=#3A5431;" vertex="1" parent="kOU8PxFYshsEvwVghsib-10">
          <mxGeometry x="150" y="30" width="80" height="40" as="geometry" />
        </mxCell>
        <mxCell id="kOU8PxFYshsEvwVghsib-19" value="Display summary" style="rounded=0;whiteSpace=wrap;html=1;fillColor=#6d8764;fontColor=#ffffff;strokeColor=#3A5431;" vertex="1" parent="kOU8PxFYshsEvwVghsib-10">
          <mxGeometry x="140" y="90" width="90" height="40" as="geometry" />
        </mxCell>
        <mxCell id="kOU8PxFYshsEvwVghsib-11" value="Display UI and welcome message" style="rounded=0;whiteSpace=wrap;html=1;fillColor=#6d8764;fontColor=#ffffff;strokeColor=#3A5431;" vertex="1" parent="WIyWlLk6GJQsqaUBKTNV-1">
          <mxGeometry x="280" y="80" width="110" height="40" as="geometry" />
        </mxCell>
        <mxCell id="kOU8PxFYshsEvwVghsib-35" style="edgeStyle=orthogonalEdgeStyle;rounded=0;orthogonalLoop=1;jettySize=auto;html=1;exitX=1;exitY=0.5;exitDx=0;exitDy=0;entryX=0.25;entryY=1;entryDx=0;entryDy=0;" edge="1" parent="WIyWlLk6GJQsqaUBKTNV-1" source="kOU8PxFYshsEvwVghsib-21" target="kOU8PxFYshsEvwVghsib-10">
          <mxGeometry relative="1" as="geometry" />
        </mxCell>
        <mxCell id="kOU8PxFYshsEvwVghsib-21" value="Add positive movement to recipient" style="rounded=0;whiteSpace=wrap;html=1;fillColor=#6d8764;fontColor=#ffffff;strokeColor=#3A5431;" vertex="1" parent="WIyWlLk6GJQsqaUBKTNV-1">
          <mxGeometry x="330" y="270" width="110" height="40" as="geometry" />
        </mxCell>
        <mxCell id="kOU8PxFYshsEvwVghsib-36" style="edgeStyle=orthogonalEdgeStyle;rounded=0;orthogonalLoop=1;jettySize=auto;html=1;exitX=1;exitY=0.5;exitDx=0;exitDy=0;" edge="1" parent="WIyWlLk6GJQsqaUBKTNV-1" source="kOU8PxFYshsEvwVghsib-22">
          <mxGeometry relative="1" as="geometry">
            <mxPoint x="470" y="260.0000000000001" as="targetPoint" />
          </mxGeometry>
        </mxCell>
        <mxCell id="kOU8PxFYshsEvwVghsib-22" value="Add positive movement to current user" style="rounded=0;whiteSpace=wrap;html=1;fillColor=#6d8764;fontColor=#ffffff;strokeColor=#3A5431;" vertex="1" parent="WIyWlLk6GJQsqaUBKTNV-1">
          <mxGeometry x="330" y="350" width="110" height="40" as="geometry" />
        </mxCell>
        <mxCell id="kOU8PxFYshsEvwVghsib-37" style="edgeStyle=orthogonalEdgeStyle;rounded=0;orthogonalLoop=1;jettySize=auto;html=1;exitX=1;exitY=0.5;exitDx=0;exitDy=0;entryX=0;entryY=0.5;entryDx=0;entryDy=0;" edge="1" parent="WIyWlLk6GJQsqaUBKTNV-1" source="kOU8PxFYshsEvwVghsib-23" target="kOU8PxFYshsEvwVghsib-24">
          <mxGeometry relative="1" as="geometry" />
        </mxCell>
        <mxCell id="kOU8PxFYshsEvwVghsib-23" value="Delete user from data" style="rounded=0;whiteSpace=wrap;html=1;fillColor=#6d8764;fontColor=#ffffff;strokeColor=#3A5431;" vertex="1" parent="WIyWlLk6GJQsqaUBKTNV-1">
          <mxGeometry x="330" y="430" width="90" height="40" as="geometry" />
        </mxCell>
        <mxCell id="kOU8PxFYshsEvwVghsib-24" value="Log user out (hide UI)" style="rounded=0;whiteSpace=wrap;html=1;fillColor=#6d8764;fontColor=#ffffff;strokeColor=#3A5431;" vertex="1" parent="WIyWlLk6GJQsqaUBKTNV-1">
          <mxGeometry x="460" y="430" width="90" height="40" as="geometry" />
        </mxCell>
        <mxCell id="kOU8PxFYshsEvwVghsib-39" style="edgeStyle=orthogonalEdgeStyle;rounded=0;orthogonalLoop=1;jettySize=auto;html=1;exitX=1;exitY=0.5;exitDx=0;exitDy=0;entryX=0;entryY=0.5;entryDx=0;entryDy=0;" edge="1" parent="WIyWlLk6GJQsqaUBKTNV-1" source="kOU8PxFYshsEvwVghsib-25" target="kOU8PxFYshsEvwVghsib-27">
          <mxGeometry relative="1" as="geometry" />
        </mxCell>
        <mxCell id="kOU8PxFYshsEvwVghsib-25" value="User sorts movements" style="rounded=1;whiteSpace=wrap;html=1;fontSize=12;glass=0;strokeWidth=1;shadow=0;fillColor=#f0a30a;fontColor=#000000;strokeColor=#BD7000;" vertex="1" parent="WIyWlLk6GJQsqaUBKTNV-1">
          <mxGeometry x="490" y="350" width="110" height="40" as="geometry" />
        </mxCell>
        <mxCell id="kOU8PxFYshsEvwVghsib-38" style="edgeStyle=orthogonalEdgeStyle;rounded=0;orthogonalLoop=1;jettySize=auto;html=1;exitX=0;exitY=0.5;exitDx=0;exitDy=0;entryX=1;entryY=0.5;entryDx=0;entryDy=0;" edge="1" parent="WIyWlLk6GJQsqaUBKTNV-1" source="kOU8PxFYshsEvwVghsib-26" target="kOU8PxFYshsEvwVghsib-24">
          <mxGeometry relative="1" as="geometry" />
        </mxCell>
        <mxCell id="kOU8PxFYshsEvwVghsib-26" value="User timer expires" style="rounded=1;whiteSpace=wrap;html=1;fontSize=12;glass=0;strokeWidth=1;shadow=0;fillColor=#f0a30a;fontColor=#000000;strokeColor=#BD7000;" vertex="1" parent="WIyWlLk6GJQsqaUBKTNV-1">
          <mxGeometry x="590" y="430" width="110" height="40" as="geometry" />
        </mxCell>
        <mxCell id="kOU8PxFYshsEvwVghsib-40" value="YES" style="edgeStyle=orthogonalEdgeStyle;rounded=0;orthogonalLoop=1;jettySize=auto;html=1;exitX=1;exitY=0.5;exitDx=0;exitDy=0;entryX=1;entryY=0.5;entryDx=0;entryDy=0;" edge="1" parent="WIyWlLk6GJQsqaUBKTNV-1" source="kOU8PxFYshsEvwVghsib-27" target="kOU8PxFYshsEvwVghsib-16">
          <mxGeometry relative="1" as="geometry" />
        </mxCell>
        <mxCell id="kOU8PxFYshsEvwVghsib-43" value="NO" style="edgeStyle=orthogonalEdgeStyle;rounded=0;orthogonalLoop=1;jettySize=auto;html=1;exitX=0.5;exitY=0;exitDx=0;exitDy=0;entryX=0.5;entryY=1;entryDx=0;entryDy=0;" edge="1" parent="WIyWlLk6GJQsqaUBKTNV-1" source="kOU8PxFYshsEvwVghsib-27" target="kOU8PxFYshsEvwVghsib-28">
          <mxGeometry relative="1" as="geometry" />
        </mxCell>
        <mxCell id="kOU8PxFYshsEvwVghsib-27" value="Already sorted?" style="rhombus;whiteSpace=wrap;html=1;shadow=0;fontFamily=Helvetica;fontSize=12;align=center;strokeWidth=1;spacing=6;spacingTop=-4;fillColor=#647687;fontColor=#ffffff;strokeColor=#314354;" vertex="1" parent="WIyWlLk6GJQsqaUBKTNV-1">
          <mxGeometry x="630" y="340" width="120" height="60" as="geometry" />
        </mxCell>
        <mxCell id="kOU8PxFYshsEvwVghsib-44" style="edgeStyle=orthogonalEdgeStyle;rounded=0;orthogonalLoop=1;jettySize=auto;html=1;exitX=0.5;exitY=0;exitDx=0;exitDy=0;" edge="1" parent="WIyWlLk6GJQsqaUBKTNV-1" source="kOU8PxFYshsEvwVghsib-28">
          <mxGeometry relative="1" as="geometry">
            <mxPoint x="689.8965517241379" y="170.0000000000001" as="targetPoint" />
          </mxGeometry>
        </mxCell>
        <mxCell id="kOU8PxFYshsEvwVghsib-28" value="Sort movements" style="rounded=0;whiteSpace=wrap;html=1;fillColor=#6d8764;fontColor=#ffffff;strokeColor=#3A5431;" vertex="1" parent="WIyWlLk6GJQsqaUBKTNV-1">
          <mxGeometry x="635" y="270" width="110" height="40" as="geometry" />
        </mxCell>
      </root>
    </mxGraphModel>
  </diagram>
</mxfile>
